HIERARCHY
ROOT root
{
	OFFSET	0	13.1	24.9
	CHANNELS 6  Xposition Yposition Zposition Xrotation Yrotation Zrotation
	JOINT spine_1
	{
		OFFSET	0	9.99999	0
		CHANNELS 3  Xrotation Yrotation Zrotation
		JOINT spine_2
		{
			OFFSET	0	112	-10
			CHANNELS 3  Xrotation Yrotation Zrotation
			JOINT spine_3
			{
				OFFSET	0	206.5	19.3
				CHANNELS 3  Xrotation Yrotation Zrotation
				JOINT spine_4
				{
					OFFSET	0	110.4	14.6
					CHANNELS 3  Xrotation Yrotation Zrotation
					JOINT neck_1
					{
						OFFSET	0	71.8	-50.3
						CHANNELS 3  Xrotation Yrotation Zrotation
						JOINT neck_2
						{
							OFFSET	0	86.2	-25.8
							CHANNELS 3  Xrotation Yrotation Zrotation
							JOINT head_ee
							{
								OFFSET	0	179.8	-8.7
								CHANNELS 3  Xrotation Yrotation Zrotation
								End Site
								{
									OFFSET	1	0	0
								}
							}
						}
					}
					JOINT left_clavicle
					{
						OFFSET	-43.2	22.4	-70.8
						CHANNELS 3  Xrotation Yrotation Zrotation
						JOINT left_shoulder
						{
							OFFSET	-93.9	-5.79999	48.7
							CHANNELS 3  Xrotation Yrotation Zrotation
							JOINT left_elbow
							{
								OFFSET	-291.4	-30.8	15.2
								CHANNELS 3  Xrotation Yrotation Zrotation
								JOINT left_lowarm_twist
								{
									OFFSET	-110.7	-3.89999	13.6
									CHANNELS 3  Xrotation Yrotation Zrotation
									JOINT left_hand
									{
										OFFSET	-110.7	-3.89999	13.6
										CHANNELS 3  Xrotation Yrotation Zrotation
										JOINT left_ee
										{
											OFFSET	-80.8	-5.10001	12.1
											CHANNELS 3  Xrotation Yrotation Zrotation
											End Site
											{
												OFFSET	1	0	0
											}
										}
									}
								}
							}
						}
					}
					JOINT right_clavicle
					{
						OFFSET	43.2	22.4	-70.8
						CHANNELS 3  Xrotation Yrotation Zrotation
						JOINT right_shoulder
						{
							OFFSET	93.9	-5.79999	48.7
							CHANNELS 3  Xrotation Yrotation Zrotation
							JOINT right_elbow
							{
								OFFSET	291.4	-30.8	15.2
								CHANNELS 3  Xrotation Yrotation Zrotation
								JOINT right_lowarm_twist
								{
									OFFSET	110.7	-3.89999	13.6
									CHANNELS 3  Xrotation Yrotation Zrotation
									JOINT right_hand
									{
										OFFSET	110.7	-3.89999	13.6
										CHANNELS 3  Xrotation Yrotation Zrotation
										JOINT right_ee
										{
											OFFSET	80.8	-5.10001	12.1
											CHANNELS 3  Xrotation Yrotation Zrotation
											End Site
											{
												OFFSET	1	0	0
											}
										}
									}
								}
							}
						}
					}
				}
			}
		}
	}
	JOINT left_hip
	{
		OFFSET	-82.8	-127.5	0.300001
		CHANNELS 3  Xrotation Yrotation Zrotation
		JOINT left_knee
		{
			OFFSET	-28.2	-396.7	2.2
			CHANNELS 3  Xrotation Yrotation Zrotation
			JOINT left_ankle
			{
				OFFSET	-11.7	-411.3	35.4
				CHANNELS 3  Xrotation Yrotation Zrotation
				JOINT left_toes
				{
					OFFSET	0	-60	-88.6
					CHANNELS 3  Xrotation Yrotation Zrotation
					JOINT left_foot_ee
					{
						OFFSET	-22.5	-16.5	-42.2
						CHANNELS 3  Xrotation Yrotation Zrotation
						End Site
						{
							OFFSET	1	0	0
						}
					}
				}
			}
		}
	}
	JOINT right_hip
	{
		OFFSET	82.8	-127.5	0.300001
		CHANNELS 3  Xrotation Yrotation Zrotation
		JOINT right_knee
		{
			OFFSET	28.2	-396.7	2.2
			CHANNELS 3  Xrotation Yrotation Zrotation
			JOINT right_ankle
			{
				OFFSET	11.7	-411.3	35.4
				CHANNELS 3  Xrotation Yrotation Zrotation
				JOINT right_toes
				{
					OFFSET	0	-60	-88.6
					CHANNELS 3  Xrotation Yrotation Zrotation
					JOINT right_foot_ee
					{
						OFFSET	22.5	-16.5	-42.2
						CHANNELS 3  Xrotation Yrotation Zrotation
						End Site
						{
							OFFSET	1	0	0
						}
					}
				}
			}
		}
	}
}
MOTION
Frames: 16
Frame Time: 0.02
324.285 750.859 -1225.99 -170.129 -32.0749 -178.626 4.54532 0.83454 2.77934 4.54938 0.656064 2.82676 4.57873 0.279282 2.88838 4.56783 0.731763 2.80813 -28.5017 -6.79852 -10.0094 -28.4316 -9.47218 -13.194 -0.0 0.0 -0.0 3.61355 -0.541839 6.93677 -45.4338 -13.9947 48.1052 1.01648 -26.7263 0.241475 17.175 0.282158 -2.1676 -0.636327 3.85087 -2.58402 -0.0 0.0 -0.0 11.4977 5.76112 -23.084 -23.2806 24.6529 -51.1386 0.959258 25.4161 -0.216324 40.1148 0.355247 5.00887 -1.90832 -10.4018 7.91528 0.0 0.0 0.0 11.2957 -34.815 0.688028 -3.85461 0.139403 0.575028 15.557 28.1502 -2.31388 -26.5867 0.0 0.0 -0.0 0.0 -0.0 9.83504 0.553347 4.35514 -5.87709 -0.196976 -0.880058 23.2422 -4.97252 3.12603 2.85599 -0.0 -0.0 0.0 0.0 0.0 
326.223 752.283 -1221.14 -169.329 -33.5559 -178.059 4.45957 0.722799 2.89269 4.46406 0.537347 2.93278 4.48835 0.142816 2.97814 4.4765 0.611163 2.9183 -27.0237 -7.53284 -10.7641 -26.9299 -10.3756 -14.0656 -0.0 0.0 -0.0 3.77536 0.696288 7.31777 -45.0366 -13.5364 49.0808 1.03413 -27.1244 0.249467 17.1863 0.282128 -2.16906 -0.691421 2.25477 -3.64142 -0.0 0.0 -0.0 11.5896 6.44434 -23.3059 -22.6131 24.3524 -50.2977 0.977617 25.8396 -0.224265 40.3375 0.366932 5.03484 -2.04158 -12.5511 7.72719 0.0 0.0 0.0 12.6061 -31.8894 0.451741 -3.32022 0.122394 0.494779 15.9539 29.1132 -2.38494 -26.2379 0.0 0.0 -0.0 0.0 -0.0 9.65286 0.701786 5.03699 -5.34011 -0.182741 -0.798879 22.7206 -3.1643 3.0686 1.89705 -0.0 -0.0 0.0 0.0 0.0 
327.96 750.87 -1220.13 -169.011 -34.7928 -178.234 4.39165 0.698579 3.0316 4.39662 0.504348 3.06986 4.42019 0.0881405 3.10973 4.40716 0.577926 3.05687 -26.9254 -6.94683 -10.7732 -26.7801 -9.22613 -13.7411 -0.0 0.0 -0.0 3.87274 1.66655 7.55311 -44.5437 -13.8818 49.7437 1.06329 -27.7761 0.26291 17.1624 0.282191 -2.16601 -0.71144 3.24253 -3.34464 -0.0 0.0 -0.0 11.6176 6.62642 -23.3725 -22.2486 24.1505 -49.9609 1.05998 27.7025 -0.261369 40.4603 0.373421 5.04915 -2.07467 -13.1242 7.65656 0.0 0.0 0.0 13.8176 -29.7545 1.01162 -2.687 0.10127 0.399895 16.4055 30.4191 -2.47142 -26.3479 0.0 0.0 -0.0 0.0 -0.0 9.38127 0.803377 5.55291 -5.3681 -0.183502 -0.803109 22.9102 -3.26602 3.09089 1.67864 -0.0 -0.0 0.0 0.0 0.0 
333.008 750.447 -1218.7 -169.244 -37.003 -178.396 4.28211 0.717014 3.1566 4.28751 0.514804 3.19577 4.31265 0.0755503 3.23604 4.29852 0.585413 3.1836 -26.9633 -5.83504 -11.7488 -26.6691 -6.71776 -14.0504 -0.0 0.0 -0.0 4.1293 2.63813 8.08434 -43.9507 -13.933 50.5811 1.07099 -27.9469 0.266509 16.9834 0.282617 -2.14315 -0.87133 5.33537 -3.4845 -0.0 0.0 -0.0 11.5891 5.98464 -23.292 -21.4195 24.1106 -49.7752 1.09963 28.5775 -0.280071 40.5635 0.378893 5.06115 -2.19915 -13.5995 8.20995 0.0 0.0 0.0 14.0147 -28.1933 1.02837 -2.53686 0.0961078 0.377431 16.0384 28.7111 -2.39026 -26.4354 0.0 0.0 -0.0 0.0 -0.0 8.54269 -0.778392 5.43297 -6.15054 -0.203932 -0.921446 23.6038 -4.6038 3.16956 1.41986 -0.0 -0.0 0.0 0.0 0.0 
333.872 753.047 -1216.15 -169.03 -38.787 -178.427 4.06851 0.74639 3.34673 4.07458 0.532042 3.38737 4.1024 0.0540052 3.42843 4.08649 0.594471 3.37699 -26.4024 -6.03853 -11.1563 -26.1581 -7.23428 -13.5374 -0.0 0.0 -0.0 4.2095 3.27117 8.26091 -43.3552 -13.9671 51.4634 1.08495 -28.2552 0.273084 17.1529 0.282215 -2.16479 -0.861128 4.05814 -3.97822 -0.0 0.0 -0.0 11.6482 6.63706 -23.4404 -20.7566 24.1405 -49.7898 1.06334 27.7772 -0.262933 40.6433 0.383147 5.07044 -2.18684 -14.434 7.71671 0.0 0.0 0.0 14.6565 -27.168 1.21615 -2.36976 0.090293 0.352445 15.9175 28.8586 -2.37566 -26.4823 0.0 0.0 -0.0 0.0 -0.0 7.63108 0.172995 5.54937 -5.90763 -0.197763 -0.884679 23.4002 -5.74357 3.14369 1.20994 -0.0 -0.0 0.0 0.0 0.0 
340.144 751.632 -1214.94 -169.199 -39.6243 -178.893 3.85862 0.868261 3.4916 3.86517 0.644465 3.53969 3.90147 0.131655 3.5954 3.88411 0.697473 3.52964 -26.315 -4.80583 -11.4927 -25.9868 -4.70696 -13.1956 -0.0 0.0 -0.0 4.49927 4.11284 8.83347 -42.8219 -13.7606 52.1321 1.08864 -28.3363 0.274833 15.438 0.283332 -1.94577 -1.07172 7.14468 -3.99544 -0.0 0.0 -0.0 11.7184 7.03649 -23.6058 -20.2926 24.1997 -49.4287 1.06462 27.8056 -0.26353 40.7174 0.387102 5.07905 -2.15802 -13.9922 7.755 0.0 0.0 0.0 18.3126 -26.0859 2.17868 -2.4398 0.0927395 0.362916 10.4995 30.0059 -1.60833 -27.4991 0.0 0.0 -0.0 0.0 -0.0 5.8197 -2.0402 6.58502 -3.7715 -0.136807 -0.562538 25.6066 -5.36239 3.40147 0.569228 -0.0 -0.0 0.0 0.0 0.0 
343.869 749.684 -1215.75 -168.043 -40.8678 -178.177 3.80809 0.90667 3.58685 3.81499 0.676748 3.63718 3.85435 0.146686 3.69662 3.83603 0.728269 3.62723 -26.3041 -5.05842 -11.6979 -25.9705 -5.11168 -13.5149 -0.0 0.0 -0.0 4.6603 4.84206 9.15393 -42.6085 -14.5623 52.3724 1.08165 -28.1823 0.271521 14.5417 0.281308 -1.83131 -0.459768 4.09807 -1.31306 -0.0 0.0 -0.0 11.648 6.08037 -23.4247 -19.7381 24.079 -49.0547 1.14187 29.4936 -0.300569 40.7442 0.388536 5.08216 -1.92375 -11.1743 7.64256 0.0 0.0 0.0 20.354 -24.9906 2.96276 -3.7026 0.134641 0.552185 6.98738 29.838 -1.08001 -26.0448 0.0 0.0 -0.0 0.0 -0.0 6.86243 -3.36794 6.64468 -2.86039 -0.107159 -0.425853 27.4592 -8.81947 3.61363 -1.74283 0.0 0.0 0.0 0.0 0.0 
349.294 753.893 -1216.05 -167.026 -42.0207 -177.781 3.69191 1.10637 3.78228 3.69946 0.86364 3.84489 3.75376 0.295295 3.92948 3.73338 0.91172 3.83378 -26.2776 -5.36418 -11.4893 -25.9722 -5.77889 -13.4774 -0.0 0.0 -0.0 5.05741 4.9871 9.89513 -41.6559 -13.8419 53.5625 1.06988 -27.9223 0.265988 16.799 0.282982 -2.11959 -1.00682 6.86326 -3.69733 -0.0 0.0 -0.0 11.6042 6.58469 -23.3418 -19.2404 24.1423 -48.8933 1.15054 29.6796 -0.30485 40.575 0.379509 5.0625 -2.09246 -13.5339 7.56768 0.0 0.0 0.0 20.6053 -24.1246 3.95064 -1.79035 0.0695656 0.265939 8.58111 30.2217 -1.324 -27.2385 0.0 0.0 -0.0 0.0 -0.0 6.23703 -1.59563 7.13359 -1.43084 -0.0562648 -0.212369 24.1745 -9.41574 3.23799 -0.185232 0.0 0.0 0.0 0.0 0.0 
355.789 749.518 -1214.23 -167.503 -44.1503 -177.817 3.43841 1.09052 4.00126 3.44692 0.833919 4.0624 3.50257 0.216003 4.14135 3.47969 0.8668 4.05552 -26.1291 -5.17387 -11.4062 -25.8202 -5.41608 -13.285 -0.0 0.0 -0.0 5.18524 6.562 10.1521 -40.4988 -13.3632 53.3034 1.02521 -26.9235 0.245413 16.7439 0.283077 -2.11255 -1.28897 8.29035 -4.89326 -0.0 0.0 -0.0 11.5232 6.42916 -23.1588 -19.3716 24.0951 -49.4651 1.17373 30.1741 -0.316423 41.0497 0.404983 5.11761 -1.88664 -12.6558 6.69188 0.0 0.0 0.0 21.3119 -24.2848 4.34259 -4.26497 0.151956 0.636755 9.16067 29.3619 -1.4026 -26.808 0.0 0.0 -0.0 0.0 -0.0 6.21803 -5.17319 7.17695 -2.65161 -0.100059 -0.394598 24.5068 -10.6527 3.28111 0.365967 -0.0 -0.0 0.0 0.0 0.0 
364.174 747.84 -1215.91 -166.397 -45.3403 -177.31 3.61307 1.12416 4.05261 3.62179 0.864231 4.11578 3.67984 0.251073 4.1979 3.65641 0.91034 4.10584 -25.6398 -4.94869 -12.5907 -25.2299 -4.40717 -14.21 -0.0 0.0 -0.0 5.38515 6.77567 10.5193 -41.2715 -14.1924 54.0643 1.04755 -27.4254 0.255619 15.2404 0.28304 -1.92052 -1.29936 10.9977 -3.73143 -0.0 0.0 -0.0 11.4339 5.02528 -22.9201 -19.2021 24.1216 -49.4267 1.15535 29.7826 -0.307236 39.6779 0.332617 4.95778 -1.88025 -10.7236 7.57968 0.0 0.0 0.0 24.7212 -23.2086 6.04709 -9.6535 0.275505 1.45414 8.07818 29.5766 -1.24257 -24.5066 0.0 0.0 -0.0 0.0 -0.0 5.2418 -3.8639 7.92966 -0.395631 -0.0160886 -0.058582 24.826 -14.2331 3.33942 -1.36379 0.0 0.0 0.0 0.0 0.0 
372.292 744.032 -1213.68 -165.632 -46.1832 -177.22 3.60719 1.16537 4.31255 3.61709 0.888863 4.37779 3.68043 0.237126 4.46066 3.6539 0.937951 4.36756 -25.2211 -4.70632 -14.1019 -24.6809 -3.22425 -15.4414 -0.0 0.0 -0.0 5.3834 7.57302 10.519 -40.9985 -13.8143 55.0344 1.0098 -26.5749 0.23848 16.1785 0.283654 -2.04034 -1.26371 11.5303 -3.26321 -0.0 0.0 -0.0 11.3615 4.18748 -22.7309 -19.0225 24.2037 -49.7918 1.22772 31.3058 -0.344022 38.0888 0.253604 4.77055 -1.81824 -10.8222 7.13374 0.0 0.0 0.0 26.0135 -21.625 6.90264 -12.2938 0.307857 1.85795 10.1878 30.2614 -1.56492 -24.2723 0.0 0.0 -0.0 0.0 -0.0 5.64085 -4.67768 8.90721 -1.28875 -0.0509156 -0.191219 24.8343 -13.8326 3.33741 -0.409834 0.0 0.0 0.0 0.0 0.0 
381.275 742.664 -1212.47 -165.788 -47.2623 -177.143 3.59537 1.18735 4.31148 3.60525 0.910863 4.37812 3.67033 0.258118 4.46425 3.6438 0.959246 4.36779 -24.6191 -4.60523 -14.141 -24.0712 -2.86416 -15.3687 -0.0 0.0 -0.0 5.67316 7.88433 11.0433 -40.5947 -13.5229 55.2241 0.967267 -25.6012 0.219774 16.0687 0.283684 -2.02632 -1.31449 11.8341 -3.44787 -0.0 0.0 -0.0 11.2929 3.56642 -22.5561 -19.0963 24.4369 -50.2281 1.21355 31.0113 -0.336688 37.5522 0.228104 4.70685 -1.77461 -9.83903 7.32031 0.0 0.0 0.0 27.2222 -22.0729 7.33941 -15.6555 0.322075 2.37346 10.4302 30.3571 -1.60208 -23.1857 0.0 0.0 -0.0 0.0 -0.0 3.99759 -3.57108 8.44995 -1.1859 -0.0470102 -0.175918 24.9274 -16.6682 3.37336 -0.773946 0.0 0.0 0.0 0.0 0.0 
393.719 743.229 -1215.49 -165.494 -48.1343 -176.224 3.57085 0.998937 4.21038 3.58042 0.729246 4.26527 3.63036 0.0914879 4.32608 3.60508 0.772937 4.25758 -23.8936 -3.56053 -13.9498 -23.3493 -0.745563 -14.6373 -0.0 0.0 -0.0 5.84708 9.26561 11.3432 -39.7383 -13.3414 56.3326 0.90346 -24.1105 0.192951 15.7521 0.283618 -1.98588 -1.26794 16.1684 -1.19708 -0.0 0.0 -0.0 11.2155 2.0956 -22.3183 -19.6077 24.7859 -50.0231 1.2341 31.4378 -0.347342 36.7488 0.191049 4.61106 -1.48943 -8.80958 5.95576 0.0 0.0 0.0 28.6309 -21.0822 8.46448 -18.0557 0.313713 2.7416 9.52941 30.4136 -1.46828 -22.661 0.0 0.0 -0.0 0.0 -0.0 3.38921 -5.19307 7.92564 -1.06193 -0.0422666 -0.157483 26.0654 -18.5186 3.52956 -0.98932 0.0 0.0 0.0 0.0 0.0 
405.465 741.895 -1218.25 -164.68 -49.3678 -175.605 3.69987 0.992861 4.24099 3.70958 0.72124 4.29543 3.75886 0.0888761 4.35455 3.73324 0.774841 4.2861 -23.4441 -2.87652 -13.959 -22.901 0.693455 -14.3012 -0.0 0.0 -0.0 5.90466 10.0286 11.4336 -39.1989 -13.173 56.6724 0.862101 -23.1252 0.17638 15.555 0.283465 -1.96071 -1.2194 19.0997 0.407574 -0.0 0.0 -0.0 10.7376 1.51356 -21.2714 -20.0401 25.0905 -49.6745 1.26715 32.1155 -0.364747 36.2352 0.168063 4.54954 -1.27122 -8.13515 4.84839 0.0 0.0 0.0 29.6257 -20.736 9.36546 -19.4773 0.301491 2.95938 9.09443 30.1174 -1.40008 -22.2743 0.0 0.0 -0.0 0.0 -0.0 3.49115 -6.50013 8.90097 -1.06886 -0.0425328 -0.158514 26.8685 -20.4899 3.6525 -1.18896 0.0 0.0 0.0 0.0 0.0 
423.206 732.611 -1220.49 -163.788 -51.3629 -174.344 3.47546 0.806948 4.18706 3.48505 0.539124 4.22982 3.52071 -0.100018 4.2628 3.49581 0.573855 4.22525 -23.1377 -1.96929 -11.7658 -22.7559 1.53026 -11.8348 -0.0 0.0 -0.0 5.56912 10.156 10.8406 -38.0206 -13.5983 58.3624 0.862254 -23.1288 0.17644 15.6389 0.283541 -1.97142 -0.841085 25.1425 5.19826 -0.0 0.0 -0.0 10.5262 1.79411 -20.8383 -22.1277 25.1777 -48.9055 1.36305 34.026 -0.417083 36.4319 0.176799 4.57312 -0.808835 -7.61958 2.07649 0.0 0.0 0.0 30.3717 -20.2396 10.2877 -21.0794 0.281247 3.20436 9.68645 29.3824 -1.48099 -20.9393 0.0 0.0 -0.0 0.0 -0.0 4.14228 -7.53784 10.2582 -4.2605 -0.151821 -0.636081 27.8791 -27.0091 3.90667 -1.48712 0.0 0.0 0.0 0.0 0.0 
431.866 733.659 -1222.17 -163.48 -52.9154 -173.777 3.49885 0.519298 4.08538 3.5081 0.258507 4.11009 3.52251 -0.360125 4.10245 3.49915 0.291738 4.10787 -22.446 -1.73177 -11.0671 -22.1101 1.80839 -11.0557 -0.0 0.0 -0.0 6.01231 10.9399 11.6044 -37.7644 -13.008 57.3446 0.84718 -22.7661 0.170563 16.44 0.283476 -2.07375 -0.767755 29.0572 7.18606 -0.0 0.0 -0.0 10.4135 0.565976 -20.542 -22.4482 25.4261 -48.8963 1.35821 33.9315 -0.414376 34.1388 0.0800016 4.29643 -0.383491 -8.52058 -1.06234 0.0 0.0 0.0 31.0389 -19.8011 11.2836 -22.4372 0.258733 3.41148 7.3633 29.1882 -1.13189 -19.6437 0.0 0.0 -0.0 0.0 -0.0 2.90247 -8.2783 11.2151 -1.73487 -0.0675353 -0.257667 27.3944 -28.4745 3.88621 -3.56355 0.0 0.0 0.0 0.0 0.0 
